<svg xmlns="http://www.w3.org/2000/svg"  viewBox="0 0 512 512" width="48px" height="48px"><path fill="#BCBCBC" d="M430.3,239.2c-2.7-27.8-6.4-55.6-9.8-83.3c-2.2-17.8-4.2-35.8-8.2-53.4c-1.9-8.5-4.1-17-7.6-25c-1.8-4-4-8.7-7.4-11.8c-1.4-0.2-2.7-0.9-3.5-2.4c-0.1,0-0.1,0-0.2,0c-0.6-0.1-1.1-0.3-1.7-0.4c-2.8-0.5-5.7-0.7-8.5-0.8c-8.3-0.3-16.6,0-24.9,0.4c-16.3,0.8-32.4,2-48.8,1.5c-32.9-1-65.7-4.7-98.6-5.7c-19.7-0.6-39.6-0.1-59.3,0.8c-16.7,0.7-34.2,1.9-50.1,7.8C88.4,72,77.7,80.8,78.5,96c0,0.4,0,0.7,0,1.1c0,0.1,0,0.3,0,0.4c2.1,57.7,9.5,114.9,11.3,172.6c0.9,29.2,0.6,58.5,2.3,87.6c1,16.9,0.8,33.9,3.5,50.7c2.7,17,9.3,34.7,25.3,43.4c11.2,6.2,23.6,7.9,36.3,7.9c16.1,0,32.2-0.9,48.3-1.6c31.1-1.3,62.3,0.8,93.4-0.2c27.4-0.9,54.8-2.6,82.2-4.6c0-1,0.3-2.1,0.8-2.9c-0.1-0.5-0.5-1.9-0.7-2.4c-1-2.9-2.2-5.8-3.5-8.6c-2.6-5.9-5.5-11.6-8.5-17.3c-6.9-13.3-9-28-1.1-41.4c8.3-14.2,21.9-23.7,33.3-35.2c6.6-6.7,11.9-13.8,16.7-21.8c4-6.6,8-13.2,13.7-18.3c0.1-9.5,0.6-19.1,0.6-28.6C432.7,264.2,431.5,251.7,430.3,239.2z"/><path fill="#14B6B9" d="M406.3,356.1c-6.3,5.9-13,11.5-19,17.8c-5,5.3-10.4,11.4-12.3,18.6c-3.8,14.2,4.7,25.5,10.5,37.7c1.3,2.6,4.5,8.7,6.4,14.6c0,0,0-0.1,0-0.1c2.8-7.1,5.1-14.4,7.5-21.7c5.4-16.2,10-32.6,14-49.2c2.9-12.1,6.1-24.2,9.2-36.3C417.9,344.2,412.4,350.4,406.3,356.1z"/><path d="M443,306c0.1-10,0.6-20.1,0.6-30.1c0.1-13.2-1.3-26.3-2.5-39.4c-2.9-29.7-7-59.3-10.5-89c-2.1-17.5-4.6-35-8.7-52.1c-3.2-13.4-7.8-31.6-20.1-39.9c-1.2-2.3-3.6-3.4-6.7-3.5c-0.6,0-1.2,0.1-1.7,0.2c-1-0.2-1.9-0.3-2.7-0.4c-8-0.9-16.2-0.7-24.3-0.5c-15.2,0.4-30.5,2.2-45.7,2.1c-32.9-0.2-65.7-3.8-98.6-5.4c-21.8-1.1-43.5-0.6-65.2,0.1c-31.6,1-91.6,4.1-89.2,48.7c0,0.2,0,0.3,0,0.5c0,0.3-0.1,0.7,0,1c1.2,32.2,4.1,64.3,6.9,96.4c2.8,32.7,4.3,65.3,5,98.1c0.7,28.1,1.4,56.1,2.6,84.2c0.8,18.7,1.7,38.2,8.8,55.7c7,17.1,20.4,28.6,37.8,34.3c13.1,4.3,27.4,4,41,3.6c15.3-0.5,30.6-1.4,45.9-1.7c29.4-0.6,58.7,1,88.1,0c29.4-1,58.9-3,88.2-5.2c1.1,0.3,2.2,0.2,3.4-0.3c2.8-0.6,4.1-2.9,4.1-5.2c1-2.8,1.4-6,2.5-8.6c6.7-16.8,12.2-34.5,16.8-52.1c2.4-9,4.8-18,6.9-27.1c2.1-9,3.4-18.9,6.7-27.6c2-5.3,3.1-10.9,4.6-16.3c0.9-3.4,2.1-10.4,5.3-12.4C445.4,311.9,445,308.2,443,306z M413.4,373.6c-4,16.6-8.6,33-14,49.2c-2.4,7.3-4.7,14.5-7.5,21.7c0,0,0,0.1,0,0.1c-1.8-5.9-5.1-11.9-6.4-14.6c-5.8-12.2-14.3-23.5-10.5-37.7c1.9-7.2,7.3-13.3,12.3-18.6c6-6.3,12.7-11.8,19-17.8c6.1-5.7,11.5-11.9,16.2-18.7C419.4,349.4,416.3,361.5,413.4,373.6z M432,305.3c-5.7,5.1-9.8,11.7-13.7,18.3c-4.9,8-10.1,15.2-16.7,21.8c-11.4,11.6-25,21-33.3,35.2c-7.9,13.5-5.8,28.2,1.1,41.4c3,5.7,5.8,11.4,8.5,17.3c1.3,2.8,2.5,5.7,3.5,8.6c0.2,0.5,0.6,1.9,0.7,2.4c-0.5,0.9-0.8,1.9-0.8,2.9c-27.4,2-54.8,3.7-82.2,4.6c-31.1,1-62.3-1.2-93.4,0.2c-16.1,0.7-32.2,1.7-48.3,1.6c-12.7,0-25.1-1.8-36.3-7.9c-16-8.8-22.6-26.4-25.3-43.4c-2.7-16.7-2.5-33.8-3.5-50.7c-1.8-29.1-1.4-58.4-2.3-87.6c-1.8-57.7-9.2-115-11.3-172.6c0-0.2,0-0.3,0-0.4c0-0.3,0.1-0.7,0-1.1c-0.8-15.2,10-24,23.2-28.9c15.8-5.9,33.3-7.1,50.1-7.8c19.7-0.9,39.6-1.4,59.3-0.8c32.9,1,65.7,4.6,98.6,5.7c16.4,0.5,32.5-0.8,48.8-1.5c8.3-0.4,16.6-0.7,24.9-0.4c2.9,0.1,5.7,0.3,8.5,0.8c0.6,0.1,1.1,0.2,1.7,0.4c0.1,0,0.1,0,0.2,0c0.8,1.5,2.1,2.2,3.5,2.4c3.4,3.1,5.6,7.7,7.4,11.8c3.5,8,5.7,16.5,7.6,25c4,17.6,6,35.5,8.2,53.4c3.4,27.8,7.1,55.5,9.8,83.3c1.2,12.5,2.3,24.9,2.3,37.5C432.6,286.2,432.1,295.8,432,305.3z"/></svg>