<svg xmlns="http://www.w3.org/2000/svg" width="298.623" height="285" viewBox="0 0 298.623 285"><g transform="translate(285) rotate(90)" fill="#121617"><path d="M 142.5 283 C 132.9659576416016 283 123.4384613037109 282.0396423339844 114.1822280883789 280.1455078125 C 105.1622695922852 278.2997741699219 96.28992462158203 275.5456237792969 87.81169128417969 271.9596252441406 C 79.48688507080078 268.4385681152344 71.45749664306641 264.080322265625 63.94649887084961 259.0060119628906 C 56.50634765625 253.9795074462891 49.50992202758789 248.2068939208984 43.1515007019043 241.8485107421875 C 36.79307556152344 235.4900970458984 31.02046203613281 228.4936370849609 25.99399948120117 221.0534820556641 C 20.91969299316406 213.5425109863281 16.56146240234375 205.5130920410156 13.04034614562988 197.1883239746094 C 9.454384803771973 188.7100982666016 6.700230598449707 179.8377532958984 4.854499816894531 170.8177795410156 C 2.960384607315063 161.5615081787109 2 152.0340576171875 2 142.5000152587891 C 2 135.9661254882812 2.986884593963623 130.0400543212891 5.017000198364258 124.3830947875977 C 6.873000144958496 119.2113647460938 9.609538078308105 114.2656326293945 13.3829231262207 109.2633209228516 C 20.60669136047363 99.68693542480469 30.7180004119873 91.07408905029297 42.42592239379883 81.10128784179688 C 50.97554016113281 73.81867218017578 60.66592407226562 65.56439971923828 70.37277221679688 55.85759353637695 C 72.33196258544922 53.89836120605469 74.29857635498047 51.92416763305664 76.20042419433594 50.01497650146484 C 109.147575378418 16.94082260131836 137.6017303466797 -11.62302303314209 175 -11.62302303314209 C 185.7306213378906 -11.62302303314209 195.9096527099609 -10.13540840148926 205.2543487548828 -7.201523303985596 C 214.1491546630859 -4.408869743347168 222.4851226806641 -0.2444849759340286 230.0306091308594 5.175938129425049 C 244.1993103027344 15.35424613952637 255.8607330322266 30.06336212158203 264.69091796875 48.89466857910156 C 270.7934265136719 61.90870666503906 275.4605102539062 76.80543518066406 278.5625915527344 93.17101287841797 C 281.5070495605469 108.705207824707 283 125.3018646240234 283 142.5000152587891 C 283 152.0340576171875 282.0396118164062 161.5615081787109 280.1455078125 170.8177795410156 C 278.2997741699219 179.8377532958984 275.5456237792969 188.7100982666016 271.9596557617188 197.1883239746094 C 268.4385375976562 205.5130920410156 264.080322265625 213.5425109863281 259.0060119628906 221.0534820556641 C 253.9795379638672 228.4936370849609 248.2069244384766 235.4900970458984 241.8484954833984 241.8485107421875 C 235.4900817871094 248.2068939208984 228.49365234375 253.9795074462891 221.0534973144531 259.0060119628906 C 213.5424957275391 264.080322265625 205.5131225585938 268.4385681152344 197.1883087158203 271.9596252441406 C 188.7100830078125 275.5456237792969 179.8377380371094 278.2997741699219 170.8177642822266 280.1455078125 C 161.5615386962891 282.0396423339844 152.0340423583984 283 142.5 283 Z" stroke="none"/><path d="M 175 -9.623077392578125 C 170.586669921875 -9.623077392578125 166.1532897949219 -9.20599365234375 161.8230895996094 -8.383453369140625 C 157.6604156494141 -7.592681884765625 153.4404144287109 -6.39801025390625 149.2803344726562 -4.8326416015625 C 141.4701690673828 -1.893768310546875 133.62158203125 2.39776611328125 125.2860870361328 8.28717041015625 C 109.4332427978516 19.48793029785156 93.97903442382812 35.00172424316406 77.61746215820312 51.4263916015625 C 75.71492004394531 53.33627319335938 73.74758911132812 55.31118774414062 71.78695678710938 57.27177429199219 C 62.02362060546875 67.03509521484375 52.30096435546875 75.31689453125 43.72283935546875 82.62376403808594 C 32.10470581054688 92.52009582519531 22.07095336914062 101.0668487548828 14.9796142578125 110.4677276611328 C 11.32940673828125 115.3067321777344 8.686370849609375 120.0794830322266 6.899444580078125 125.0586395263672 C 4.94842529296875 130.4951782226562 4 136.2003173828125 4 142.5000152587891 C 4 151.8996887207031 4.94671630859375 161.292236328125 6.813873291015625 170.4168090820312 C 8.6331787109375 179.3074798583984 11.3477783203125 188.0525512695312 14.88238525390625 196.4092254638672 C 18.35317993164062 204.6150512695312 22.64920043945312 212.5298919677734 27.6512451171875 219.9338531494141 C 32.60646057128906 227.2685241699219 38.29728698730469 234.1658477783203 44.56570434570312 240.4342651367188 C 50.83412170410156 246.7026824951172 57.73146057128906 252.3935241699219 65.06613159179688 257.3487243652344 C 72.47007751464844 262.3507690429688 80.38496398925781 266.6468200683594 88.59078979492188 270.1176147460938 C 96.94741821289062 273.6521911621094 105.6925354003906 276.3668212890625 114.5831604003906 278.1860961914062 C 123.7077484130859 280.0532836914062 133.1003265380859 280.9999694824219 142.5 280.9999694824219 C 151.8996734619141 280.9999694824219 161.2922515869141 280.0532836914062 170.4167938232422 278.1860961914062 C 179.3074645996094 276.3668212890625 188.0525512695312 273.6521911621094 196.4092102050781 270.1176147460938 C 204.6150512695312 266.6468200683594 212.5298767089844 262.3507690429688 219.9338684082031 257.3487243652344 C 227.2685394287109 252.3935241699219 234.1658782958984 246.7026824951172 240.4342956542969 240.4342651367188 C 246.7026672363281 234.1658477783203 252.3935394287109 227.2685241699219 257.3487548828125 219.9338531494141 C 262.3507995605469 212.5298919677734 266.6468200683594 204.6150512695312 270.1176147460938 196.4092254638672 C 273.6522216796875 188.0525512695312 276.3668212890625 179.3074798583984 278.1861267089844 170.4168090820312 C 280.0532531738281 161.292236328125 281 151.8996887207031 281 142.5000152587891 C 281 125.4265594482422 279.518798828125 108.9551849365234 276.5975341796875 93.54347229003906 C 273.5267028808594 77.34248352050781 268.9114990234375 62.60614013671875 262.880126953125 49.7437744140625 C 254.1966247558594 31.22526550292969 242.7518310546875 16.7769775390625 228.8637542724609 6.800262451171875 C 221.491455078125 1.5042724609375 213.3465423583984 -2.564605712890625 204.6552429199219 -5.29339599609375 C 195.5046234130859 -8.166351318359375 185.5271606445312 -9.623077392578125 175 -9.623077392578125 M 175 -13.62307739257812 C 219.9380035400391 -13.62307739257812 249.4213256835938 11.61984252929688 266.5017395019531 48.04556274414062 C 279.2396240234375 75.21014404296875 285 108.7374725341797 285 142.5000152587891 C 285 221.2005615234375 221.2005462646484 284.9999694824219 142.5 284.9999694824219 C 63.79942321777344 284.9999694824219 0 221.2005615234375 0 142.5000152587891 C 0 104.2515106201172 33.33354187011719 90.06834411621094 68.95854187011719 54.44334411621094 C 104.5835418701172 18.81834411621094 134.5479125976562 -13.62307739257812 175 -13.62307739257812 Z" stroke="none" fill="#121617"/></g></svg>